<svg xmlns="http://www.w3.org/2000/svg" viewBox="0 0 100 100">
  <rect x="10" y="10" width="80" height="80" rx="8" fill="#007acc" stroke="#4ec9b0" stroke-width="3"/>
  <rect x="20" y="20" width="60" height="20" rx="4" fill="#1e1e1e"/>
  <rect x="20" y="48" width="12" height="12" rx="2" fill="#4ec9b0"/>
  <rect x="38" y="48" width="12" height="12" rx="2" fill="#4ec9b0"/>
  <rect x="56" y="48" width="12" height="12" rx="2" fill="#4ec9b0"/>
  <rect x="74" y="48" width="12" height="12" rx="2" fill="#c586c0"/>
  <rect x="20" y="64" width="12" height="12" rx="2" fill="#4ec9b0"/>
  <rect x="38" y="64" width="12" height="12" rx="2" fill="#4ec9b0"/>
  <rect x="56" y="64" width="12" height="12" rx="2" fill="#4ec9b0"/>
  <rect x="74" y="64" width="12" height="12" rx="2" fill="#c586c0"/>
  <rect x="20" y="80" width="30" height="12" rx="2" fill="#ce9178"/>
  <rect x="56" y="80" width="30" height="12" rx="2" fill="#f48771"/>
</svg>
